<svg width="1920mm" height="1080mm" viewBox="0 0 1920 1080" xmlns:xlink="http://www.w3.org/1999/xlink" xmlns="http://www.w3.org/2000/svg">
  <defs>
    <pattern xlink:href="#a" id="d" patternTransform="matrix(.17136 .06577 -.06535 .17246 -2654.803 439.136)"/>
    <pattern xlink:href="#b" id="c" patternTransform="translate(150.985 249.53) scale(.26458)"/>
    <pattern patternUnits="userSpaceOnUse" width="444.456" height="460.992" patternTransform="translate(507.306 218.813)" id="b">
      <path style="fill:#000;stroke-width:.035584" d="M134.315 85.001s-.887-6.606 2.899-9.643c3.785-3.038 8.725 2.504 9.76 4.007 1.035 1.503 4.14 5.73 2.248 11.585-1.893 5.855-8.075 4.79-10.145 3.13-2.07-1.659-4.26-4.727-4.762-9.079zm73.457-.018s.887-6.606-2.899-9.643c-3.785-3.038-8.725 2.504-9.76 4.007-1.035 1.503-4.14 5.73-2.248 11.585 1.893 5.855 8.075 4.79 10.145 3.13 2.07-1.658 4.26-4.727 4.762-9.079zM159.19 56.634c4.85-.626 7.541 7.327 8.162 10.332.621 3.006.207 7.609-1.893 10.552-2.1 2.943-8.666 6.794-13.013-2.13-2.648-5.925.046-18.19 6.743-18.754zm23.026.02c4.85-.626 7.542 7.326 8.163 10.332.621 3.006.207 7.609-1.893 10.552-2.1 2.943-8.666 6.794-13.014-2.13-2.648-5.926.046-18.19 6.744-18.754zM170.841 89.09c4.315-.227 7.925.91 15.142 6.288 5.46 4.068 15.727 16.295 14.305 27.453-1.372 10.768-11.877 11.295-14.894 7.851-.8-.912-3.185-2.244-4.787-2.167-3.396.162-6.51 4.684-9.558 4.453-3.886-.294-6.116-4.398-9.828-4.403-3.895-.005-5.532 4.725-10.54 4.096-5.339-.67-9.73-5.759-9.098-13.727.62-7.82 8.557-17.937 11.272-20.634 4.715-4.68 11.742-8.881 17.986-9.21z" transform="translate(-810.142 -341.617) scale(6.03572)"/>
    </pattern>
    <pattern patternUnits="userSpaceOnUse" width="1075.224" height="1035.177" patternTransform="translate(-2625.375 440.595)" id="a">
      <g transform="translate(-446.515 -368.918) scale(3.77953)">
        <path style="fill:url(#c);stroke:none;stroke-width:.264583" d="M150.985 249.529h117.596V371.5H150.985z"/>
        <path style="fill:#000;fill-opacity:1;stroke:#000;stroke-width:.419988;stroke-dasharray:none;stroke-opacity:1" d="M360.277 210.176c-.401-7.22-.322-13.3-.967-14.88-1.022-2.508-34.336-44.326-34.336-44.326s-6.51-7.106-19-7.961c-10.534-.722-15.956-15.644-6.288-24.52 8.106-7.445 12.048-3.253 12.724-4.237.562-.82 1.08-18.274 15.201-16.273 11.58 1.64 10.953 11.37 10.036 16.655-1.16 6.69.345 10.61 2.178 13.439 1.881 2.902 34.285 41.626 35.88 43.04 2.676 2.374 11.692 3.57 15.66 4.016 13.898 1.566 12.138 15.051 8.354 22.163-5.035 9.463-13.615 6.481-14.436 7.358-.99 1.06-.47 7.33-6.467 13.066-8.336 4.536-18.173-.94-18.54-7.54z"/>
        <circle style="fill:#000;fill-opacity:1;stroke:none;stroke-width:.588942" cx="390.416" cy="319.876" r="8.297"/>
        <circle style="fill:#000;fill-opacity:1;stroke:none;stroke-width:.588942" cx="268.201" cy="169.541" r="8.297"/>
        <circle style="fill:#000;fill-opacity:1;stroke:none;stroke-width:.588942" cx="126.437" cy="224.139" r="8.297"/>
      </g>
    </pattern>
  </defs>
  <path style="display:inline;opacity:.1;fill:url(#d);fill-opacity:1;stroke:none;stroke-width:15.8094" d="M0 0h1920v1080H0z"/>
</svg>
